<mxfile host="app.diagrams.net" modified="2022-01-17T11:14:20.567Z" agent="5.0 (Windows NT 10.0; Win64; x64) AppleWebKit/537.36 (KHTML, like Gecko) Chrome/97.0.4692.71 Safari/537.36" etag="GN9wD_UNQWvy1GQXzoPD" version="16.2.6" type="github">
  <diagram id="C5RBs43oDa-KdzZeNtuy" name="Page-1">
    <mxGraphModel dx="1038" dy="613" grid="1" gridSize="10" guides="1" tooltips="1" connect="1" arrows="1" fold="1" page="1" pageScale="1" pageWidth="827" pageHeight="1169" background="#F4F1DE" math="0" shadow="0">
      <root>
        <mxCell id="WIyWlLk6GJQsqaUBKTNV-0" />
        <mxCell id="WIyWlLk6GJQsqaUBKTNV-1" parent="WIyWlLk6GJQsqaUBKTNV-0" />
        <mxCell id="5LpRbifwJaGGcmGT_of5-8" style="edgeStyle=orthogonalEdgeStyle;rounded=0;orthogonalLoop=1;jettySize=auto;html=1;exitX=1;exitY=0.5;exitDx=0;exitDy=0;entryX=0;entryY=0.5;entryDx=0;entryDy=0;labelBackgroundColor=#F4F1DE;strokeColor=#E07A5F;fontColor=#393C56;" edge="1" parent="WIyWlLk6GJQsqaUBKTNV-1" source="5LpRbifwJaGGcmGT_of5-0" target="5LpRbifwJaGGcmGT_of5-1">
          <mxGeometry relative="1" as="geometry">
            <mxPoint x="350" y="585" as="targetPoint" />
          </mxGeometry>
        </mxCell>
        <mxCell id="5LpRbifwJaGGcmGT_of5-0" value="tax-sb" style="rounded=1;whiteSpace=wrap;html=1;fontSize=12;glass=0;strokeWidth=1;shadow=0;fillColor=#ffcccc;strokeColor=#36393d;" vertex="1" parent="WIyWlLk6GJQsqaUBKTNV-1">
          <mxGeometry x="160" y="560" width="120" height="40" as="geometry" />
        </mxCell>
        <mxCell id="5LpRbifwJaGGcmGT_of5-1" value="EdfJobServiceImpl" style="rounded=1;whiteSpace=wrap;html=1;fontSize=12;glass=0;strokeWidth=1;shadow=0;fillColor=#F2CC8F;strokeColor=#E07A5F;fontColor=#393C56;" vertex="1" parent="WIyWlLk6GJQsqaUBKTNV-1">
          <mxGeometry x="360" y="560" width="120" height="40" as="geometry" />
        </mxCell>
        <mxCell id="5LpRbifwJaGGcmGT_of5-2" value="数据表&lt;br&gt;edf_job&lt;br&gt;edf_job_history" style="rounded=1;whiteSpace=wrap;html=1;fontSize=12;glass=0;strokeWidth=1;shadow=0;fillColor=#fff2cc;strokeColor=#d6b656;" vertex="1" parent="WIyWlLk6GJQsqaUBKTNV-1">
          <mxGeometry x="600" y="560" width="120" height="40" as="geometry" />
        </mxCell>
        <mxCell id="5LpRbifwJaGGcmGT_of5-9" style="edgeStyle=orthogonalEdgeStyle;rounded=0;orthogonalLoop=1;jettySize=auto;html=1;entryX=0;entryY=0.25;entryDx=0;entryDy=0;exitX=1;exitY=0.25;exitDx=0;exitDy=0;labelBackgroundColor=#F4F1DE;strokeColor=#E07A5F;fontColor=#393C56;" edge="1" parent="WIyWlLk6GJQsqaUBKTNV-1" source="5LpRbifwJaGGcmGT_of5-1" target="5LpRbifwJaGGcmGT_of5-2">
          <mxGeometry relative="1" as="geometry">
            <mxPoint x="360" y="595" as="targetPoint" />
            <mxPoint x="480" y="580" as="sourcePoint" />
          </mxGeometry>
        </mxCell>
        <mxCell id="5LpRbifwJaGGcmGT_of5-10" value="JobStarter" style="rounded=1;whiteSpace=wrap;html=1;fontSize=12;glass=0;strokeWidth=1;shadow=0;fillColor=#F2CC8F;strokeColor=#E07A5F;fontColor=#393C56;" vertex="1" parent="WIyWlLk6GJQsqaUBKTNV-1">
          <mxGeometry x="160" y="680" width="120" height="40" as="geometry" />
        </mxCell>
        <mxCell id="5LpRbifwJaGGcmGT_of5-11" value="AbstractElasticJobBase" style="rounded=1;whiteSpace=wrap;html=1;fontSize=12;glass=0;strokeWidth=1;shadow=0;fillColor=#F2CC8F;strokeColor=#E07A5F;fontColor=#393C56;" vertex="1" parent="WIyWlLk6GJQsqaUBKTNV-1">
          <mxGeometry x="360" y="680" width="120" height="40" as="geometry" />
        </mxCell>
        <mxCell id="5LpRbifwJaGGcmGT_of5-12" value="TaskScheduleUtil" style="rounded=1;whiteSpace=wrap;html=1;fontSize=12;glass=0;strokeWidth=1;shadow=0;fillColor=#F2CC8F;strokeColor=#E07A5F;fontColor=#393C56;" vertex="1" parent="WIyWlLk6GJQsqaUBKTNV-1">
          <mxGeometry x="360" y="800" width="120" height="40" as="geometry" />
        </mxCell>
        <mxCell id="5LpRbifwJaGGcmGT_of5-13" value="TaskQueue" style="rounded=1;whiteSpace=wrap;html=1;fontSize=12;glass=0;strokeWidth=1;shadow=0;fillColor=#cce5ff;strokeColor=#36393d;" vertex="1" parent="WIyWlLk6GJQsqaUBKTNV-1">
          <mxGeometry x="360" y="920" width="120" height="40" as="geometry" />
        </mxCell>
        <mxCell id="5LpRbifwJaGGcmGT_of5-14" value="Robot" style="rounded=1;whiteSpace=wrap;html=1;fontSize=12;glass=0;strokeWidth=1;shadow=0;fillColor=#cdeb8b;strokeColor=#36393d;" vertex="1" parent="WIyWlLk6GJQsqaUBKTNV-1">
          <mxGeometry x="360" y="1040" width="120" height="40" as="geometry" />
        </mxCell>
        <mxCell id="5LpRbifwJaGGcmGT_of5-15" style="edgeStyle=orthogonalEdgeStyle;rounded=0;orthogonalLoop=1;jettySize=auto;html=1;exitX=1;exitY=0.5;exitDx=0;exitDy=0;entryX=0;entryY=0.5;entryDx=0;entryDy=0;labelBackgroundColor=#F4F1DE;strokeColor=#E07A5F;fontColor=#393C56;" edge="1" parent="WIyWlLk6GJQsqaUBKTNV-1" source="5LpRbifwJaGGcmGT_of5-10" target="5LpRbifwJaGGcmGT_of5-11">
          <mxGeometry relative="1" as="geometry">
            <mxPoint x="350" y="700" as="targetPoint" />
            <mxPoint x="210" y="650" as="sourcePoint" />
          </mxGeometry>
        </mxCell>
        <mxCell id="5LpRbifwJaGGcmGT_of5-16" style="edgeStyle=orthogonalEdgeStyle;rounded=0;orthogonalLoop=1;jettySize=auto;html=1;exitX=0.5;exitY=1;exitDx=0;exitDy=0;entryX=0.5;entryY=0;entryDx=0;entryDy=0;labelBackgroundColor=#F4F1DE;strokeColor=#E07A5F;fontColor=#393C56;" edge="1" parent="WIyWlLk6GJQsqaUBKTNV-1" source="5LpRbifwJaGGcmGT_of5-11" target="5LpRbifwJaGGcmGT_of5-12">
          <mxGeometry relative="1" as="geometry">
            <mxPoint x="593" y="650" as="targetPoint" />
            <mxPoint x="450" y="650" as="sourcePoint" />
          </mxGeometry>
        </mxCell>
        <mxCell id="5LpRbifwJaGGcmGT_of5-17" style="edgeStyle=orthogonalEdgeStyle;rounded=0;orthogonalLoop=1;jettySize=auto;html=1;exitX=0.25;exitY=1;exitDx=0;exitDy=0;entryX=0.25;entryY=0;entryDx=0;entryDy=0;labelBackgroundColor=#F4F1DE;strokeColor=#E07A5F;fontColor=#393C56;" edge="1" parent="WIyWlLk6GJQsqaUBKTNV-1" source="5LpRbifwJaGGcmGT_of5-1" target="5LpRbifwJaGGcmGT_of5-11">
          <mxGeometry relative="1" as="geometry">
            <mxPoint x="420" y="680" as="targetPoint" />
            <mxPoint x="340" y="819.5" as="sourcePoint" />
          </mxGeometry>
        </mxCell>
        <mxCell id="5LpRbifwJaGGcmGT_of5-19" style="edgeStyle=orthogonalEdgeStyle;rounded=0;orthogonalLoop=1;jettySize=auto;html=1;exitX=0.75;exitY=0;exitDx=0;exitDy=0;entryX=0.75;entryY=1;entryDx=0;entryDy=0;labelBackgroundColor=#F4F1DE;strokeColor=#E07A5F;fontColor=#393C56;" edge="1" parent="WIyWlLk6GJQsqaUBKTNV-1" source="5LpRbifwJaGGcmGT_of5-11" target="5LpRbifwJaGGcmGT_of5-1">
          <mxGeometry relative="1" as="geometry">
            <mxPoint x="470" y="829.5" as="targetPoint" />
            <mxPoint x="350" y="829.5" as="sourcePoint" />
          </mxGeometry>
        </mxCell>
        <mxCell id="5LpRbifwJaGGcmGT_of5-20" style="edgeStyle=orthogonalEdgeStyle;rounded=0;orthogonalLoop=1;jettySize=auto;html=1;entryX=0.5;entryY=0;entryDx=0;entryDy=0;exitX=0.5;exitY=1;exitDx=0;exitDy=0;labelBackgroundColor=#F4F1DE;strokeColor=#E07A5F;fontColor=#393C56;" edge="1" parent="WIyWlLk6GJQsqaUBKTNV-1" source="5LpRbifwJaGGcmGT_of5-12" target="5LpRbifwJaGGcmGT_of5-13">
          <mxGeometry relative="1" as="geometry">
            <mxPoint x="240" y="959.5" as="targetPoint" />
            <mxPoint x="400" y="870" as="sourcePoint" />
          </mxGeometry>
        </mxCell>
        <mxCell id="5LpRbifwJaGGcmGT_of5-21" style="edgeStyle=orthogonalEdgeStyle;rounded=0;orthogonalLoop=1;jettySize=auto;html=1;entryX=0.5;entryY=0;entryDx=0;entryDy=0;exitX=0.5;exitY=1;exitDx=0;exitDy=0;labelBackgroundColor=#F4F1DE;strokeColor=#E07A5F;fontColor=#393C56;" edge="1" parent="WIyWlLk6GJQsqaUBKTNV-1" source="5LpRbifwJaGGcmGT_of5-13" target="5LpRbifwJaGGcmGT_of5-14">
          <mxGeometry relative="1" as="geometry">
            <mxPoint x="250" y="969.5" as="targetPoint" />
            <mxPoint x="363.20001220703125" y="970" as="sourcePoint" />
          </mxGeometry>
        </mxCell>
        <mxCell id="5LpRbifwJaGGcmGT_of5-22" style="edgeStyle=orthogonalEdgeStyle;rounded=0;orthogonalLoop=1;jettySize=auto;html=1;entryX=1;entryY=0.75;entryDx=0;entryDy=0;exitX=0;exitY=0.75;exitDx=0;exitDy=0;labelBackgroundColor=#F4F1DE;strokeColor=#E07A5F;fontColor=#393C56;" edge="1" parent="WIyWlLk6GJQsqaUBKTNV-1" source="5LpRbifwJaGGcmGT_of5-2" target="5LpRbifwJaGGcmGT_of5-1">
          <mxGeometry relative="1" as="geometry">
            <mxPoint x="610" y="630" as="targetPoint" />
            <mxPoint x="490" y="630" as="sourcePoint" />
          </mxGeometry>
        </mxCell>
        <mxCell id="5LpRbifwJaGGcmGT_of5-23" value="agg" style="rounded=1;whiteSpace=wrap;html=1;fontSize=12;glass=0;strokeWidth=1;shadow=0;fillColor=#ffcccc;strokeColor=#36393d;" vertex="1" parent="WIyWlLk6GJQsqaUBKTNV-1">
          <mxGeometry x="360" y="440" width="120" height="40" as="geometry" />
        </mxCell>
        <mxCell id="5LpRbifwJaGGcmGT_of5-24" style="edgeStyle=orthogonalEdgeStyle;rounded=0;orthogonalLoop=1;jettySize=auto;html=1;exitX=0.5;exitY=1;exitDx=0;exitDy=0;labelBackgroundColor=#F4F1DE;strokeColor=#E07A5F;fontColor=#393C56;entryX=0.5;entryY=0;entryDx=0;entryDy=0;" edge="1" parent="WIyWlLk6GJQsqaUBKTNV-1" source="5LpRbifwJaGGcmGT_of5-23" target="5LpRbifwJaGGcmGT_of5-1">
          <mxGeometry relative="1" as="geometry">
            <mxPoint x="420" y="550" as="targetPoint" />
            <mxPoint x="413" y="610" as="sourcePoint" />
          </mxGeometry>
        </mxCell>
        <mxCell id="5LpRbifwJaGGcmGT_of5-25" value="&lt;font color=&quot;#000000&quot;&gt;8个分片启动多个任务&lt;br&gt;每个任务定时查询edf_job加载任务&lt;/font&gt;&lt;br&gt;数据库压力大" style="rounded=0;whiteSpace=wrap;html=1;sketch=0;strokeColor=#36393d;fillColor=#ffff88;fontColor=#FF0000;" vertex="1" parent="WIyWlLk6GJQsqaUBKTNV-1">
          <mxGeometry x="120" y="760" width="190" height="60" as="geometry" />
        </mxCell>
        <mxCell id="5LpRbifwJaGGcmGT_of5-29" style="edgeStyle=orthogonalEdgeStyle;rounded=0;orthogonalLoop=1;jettySize=auto;html=1;entryX=0;entryY=0.5;entryDx=0;entryDy=0;labelBackgroundColor=#F4F1DE;strokeColor=#E07A5F;fontColor=#393C56;exitX=0.443;exitY=0.995;exitDx=0;exitDy=0;exitPerimeter=0;" edge="1" parent="WIyWlLk6GJQsqaUBKTNV-1" source="5LpRbifwJaGGcmGT_of5-30" target="5LpRbifwJaGGcmGT_of5-85">
          <mxGeometry relative="1" as="geometry">
            <mxPoint x="350" y="1345" as="targetPoint" />
            <mxPoint x="450" y="1450" as="sourcePoint" />
          </mxGeometry>
        </mxCell>
        <mxCell id="5LpRbifwJaGGcmGT_of5-30" value="tax-sb" style="rounded=1;whiteSpace=wrap;html=1;fontSize=12;glass=0;strokeWidth=1;shadow=0;fillColor=#ffcccc;strokeColor=#36393d;" vertex="1" parent="WIyWlLk6GJQsqaUBKTNV-1">
          <mxGeometry x="200" y="1320" width="80" height="40" as="geometry" />
        </mxCell>
        <mxCell id="5LpRbifwJaGGcmGT_of5-31" value="EdfJobServiceImpl" style="rounded=1;whiteSpace=wrap;html=1;fontSize=12;glass=0;strokeWidth=1;shadow=0;fillColor=#F2CC8F;strokeColor=#E07A5F;fontColor=#393C56;" vertex="1" parent="WIyWlLk6GJQsqaUBKTNV-1">
          <mxGeometry x="360" y="1320" width="120" height="40" as="geometry" />
        </mxCell>
        <mxCell id="5LpRbifwJaGGcmGT_of5-32" value="数据表&lt;br&gt;edf_job&lt;br&gt;edf_job_history" style="rounded=1;whiteSpace=wrap;html=1;fontSize=12;glass=0;strokeWidth=1;shadow=0;fillColor=#fff2cc;strokeColor=#d6b656;" vertex="1" parent="WIyWlLk6GJQsqaUBKTNV-1">
          <mxGeometry x="600" y="1320" width="120" height="40" as="geometry" />
        </mxCell>
        <mxCell id="5LpRbifwJaGGcmGT_of5-33" style="edgeStyle=orthogonalEdgeStyle;rounded=0;orthogonalLoop=1;jettySize=auto;html=1;entryX=0;entryY=0.25;entryDx=0;entryDy=0;exitX=1;exitY=0.25;exitDx=0;exitDy=0;labelBackgroundColor=#F4F1DE;strokeColor=#E07A5F;fontColor=#393C56;" edge="1" parent="WIyWlLk6GJQsqaUBKTNV-1" source="5LpRbifwJaGGcmGT_of5-31" target="5LpRbifwJaGGcmGT_of5-32">
          <mxGeometry relative="1" as="geometry">
            <mxPoint x="360" y="1355" as="targetPoint" />
            <mxPoint x="480" y="1340" as="sourcePoint" />
          </mxGeometry>
        </mxCell>
        <mxCell id="5LpRbifwJaGGcmGT_of5-34" style="edgeStyle=orthogonalEdgeStyle;rounded=0;orthogonalLoop=1;jettySize=auto;html=1;entryX=1;entryY=0.75;entryDx=0;entryDy=0;exitX=0;exitY=0.75;exitDx=0;exitDy=0;labelBackgroundColor=#F4F1DE;strokeColor=#E07A5F;fontColor=#393C56;" edge="1" parent="WIyWlLk6GJQsqaUBKTNV-1" source="5LpRbifwJaGGcmGT_of5-32" target="5LpRbifwJaGGcmGT_of5-31">
          <mxGeometry relative="1" as="geometry">
            <mxPoint x="610" y="1390" as="targetPoint" />
            <mxPoint x="490" y="1390" as="sourcePoint" />
          </mxGeometry>
        </mxCell>
        <mxCell id="5LpRbifwJaGGcmGT_of5-35" value="agg" style="rounded=1;whiteSpace=wrap;html=1;fontSize=12;glass=0;strokeWidth=1;shadow=0;fillColor=#ffcccc;strokeColor=#36393d;" vertex="1" parent="WIyWlLk6GJQsqaUBKTNV-1">
          <mxGeometry x="80" y="1320" width="80" height="40" as="geometry" />
        </mxCell>
        <mxCell id="5LpRbifwJaGGcmGT_of5-36" style="edgeStyle=orthogonalEdgeStyle;rounded=0;orthogonalLoop=1;jettySize=auto;html=1;exitX=0.5;exitY=1;exitDx=0;exitDy=0;labelBackgroundColor=#F4F1DE;strokeColor=#E07A5F;fontColor=#393C56;entryX=0;entryY=0.5;entryDx=0;entryDy=0;" edge="1" parent="WIyWlLk6GJQsqaUBKTNV-1" source="5LpRbifwJaGGcmGT_of5-35" target="5LpRbifwJaGGcmGT_of5-85">
          <mxGeometry relative="1" as="geometry">
            <mxPoint x="420" y="1310" as="targetPoint" />
            <mxPoint x="413" y="1370" as="sourcePoint" />
          </mxGeometry>
        </mxCell>
        <mxCell id="5LpRbifwJaGGcmGT_of5-37" value="" style="rounded=0;whiteSpace=wrap;html=1;sketch=0;fillColor=#cce5ff;strokeColor=#36393d;" vertex="1" parent="WIyWlLk6GJQsqaUBKTNV-1">
          <mxGeometry x="200" y="1520" width="10" height="40" as="geometry" />
        </mxCell>
        <mxCell id="5LpRbifwJaGGcmGT_of5-38" value="" style="rounded=0;whiteSpace=wrap;html=1;sketch=0;fillColor=#cce5ff;strokeColor=#36393d;" vertex="1" parent="WIyWlLk6GJQsqaUBKTNV-1">
          <mxGeometry x="210" y="1520" width="10" height="40" as="geometry" />
        </mxCell>
        <mxCell id="5LpRbifwJaGGcmGT_of5-39" value="" style="rounded=0;whiteSpace=wrap;html=1;sketch=0;fillColor=#cce5ff;strokeColor=#36393d;" vertex="1" parent="WIyWlLk6GJQsqaUBKTNV-1">
          <mxGeometry x="220" y="1520" width="10" height="40" as="geometry" />
        </mxCell>
        <mxCell id="5LpRbifwJaGGcmGT_of5-40" value="" style="rounded=0;whiteSpace=wrap;html=1;sketch=0;fillColor=#cce5ff;strokeColor=#36393d;" vertex="1" parent="WIyWlLk6GJQsqaUBKTNV-1">
          <mxGeometry x="230" y="1520" width="10" height="40" as="geometry" />
        </mxCell>
        <mxCell id="5LpRbifwJaGGcmGT_of5-41" value="" style="rounded=0;whiteSpace=wrap;html=1;sketch=0;fillColor=#cce5ff;strokeColor=#36393d;" vertex="1" parent="WIyWlLk6GJQsqaUBKTNV-1">
          <mxGeometry x="240" y="1520" width="10" height="40" as="geometry" />
        </mxCell>
        <mxCell id="5LpRbifwJaGGcmGT_of5-42" value="" style="rounded=0;whiteSpace=wrap;html=1;sketch=0;fillColor=#cce5ff;strokeColor=#36393d;" vertex="1" parent="WIyWlLk6GJQsqaUBKTNV-1">
          <mxGeometry x="250" y="1520" width="10" height="40" as="geometry" />
        </mxCell>
        <mxCell id="5LpRbifwJaGGcmGT_of5-43" value="" style="rounded=0;whiteSpace=wrap;html=1;sketch=0;fillColor=#cce5ff;strokeColor=#36393d;" vertex="1" parent="WIyWlLk6GJQsqaUBKTNV-1">
          <mxGeometry x="260" y="1520" width="10" height="40" as="geometry" />
        </mxCell>
        <mxCell id="5LpRbifwJaGGcmGT_of5-44" value="" style="rounded=0;whiteSpace=wrap;html=1;sketch=0;fillColor=#cce5ff;strokeColor=#36393d;" vertex="1" parent="WIyWlLk6GJQsqaUBKTNV-1">
          <mxGeometry x="270" y="1520" width="10" height="40" as="geometry" />
        </mxCell>
        <mxCell id="5LpRbifwJaGGcmGT_of5-45" value="" style="rounded=0;whiteSpace=wrap;html=1;sketch=0;fillColor=#cce5ff;strokeColor=#36393d;" vertex="1" parent="WIyWlLk6GJQsqaUBKTNV-1">
          <mxGeometry x="280" y="1520" width="10" height="40" as="geometry" />
        </mxCell>
        <mxCell id="5LpRbifwJaGGcmGT_of5-46" value="" style="rounded=0;whiteSpace=wrap;html=1;sketch=0;fillColor=#cce5ff;strokeColor=#36393d;" vertex="1" parent="WIyWlLk6GJQsqaUBKTNV-1">
          <mxGeometry x="290" y="1520" width="10" height="40" as="geometry" />
        </mxCell>
        <mxCell id="5LpRbifwJaGGcmGT_of5-47" value="" style="rounded=0;whiteSpace=wrap;html=1;sketch=0;fillColor=#cce5ff;strokeColor=#36393d;" vertex="1" parent="WIyWlLk6GJQsqaUBKTNV-1">
          <mxGeometry x="300" y="1520" width="10" height="40" as="geometry" />
        </mxCell>
        <mxCell id="5LpRbifwJaGGcmGT_of5-48" value="" style="rounded=0;whiteSpace=wrap;html=1;sketch=0;fillColor=#cce5ff;strokeColor=#36393d;" vertex="1" parent="WIyWlLk6GJQsqaUBKTNV-1">
          <mxGeometry x="310" y="1520" width="10" height="40" as="geometry" />
        </mxCell>
        <mxCell id="5LpRbifwJaGGcmGT_of5-49" value="" style="rounded=0;whiteSpace=wrap;html=1;sketch=0;fillColor=#cce5ff;strokeColor=#36393d;" vertex="1" parent="WIyWlLk6GJQsqaUBKTNV-1">
          <mxGeometry x="320" y="1520" width="10" height="40" as="geometry" />
        </mxCell>
        <mxCell id="5LpRbifwJaGGcmGT_of5-50" value="" style="rounded=0;whiteSpace=wrap;html=1;sketch=0;fillColor=#cce5ff;strokeColor=#36393d;" vertex="1" parent="WIyWlLk6GJQsqaUBKTNV-1">
          <mxGeometry x="330" y="1520" width="10" height="40" as="geometry" />
        </mxCell>
        <mxCell id="5LpRbifwJaGGcmGT_of5-51" value="" style="rounded=0;whiteSpace=wrap;html=1;sketch=0;fillColor=#cce5ff;strokeColor=#36393d;" vertex="1" parent="WIyWlLk6GJQsqaUBKTNV-1">
          <mxGeometry x="340" y="1520" width="10" height="40" as="geometry" />
        </mxCell>
        <mxCell id="5LpRbifwJaGGcmGT_of5-52" value="" style="rounded=0;whiteSpace=wrap;html=1;sketch=0;fillColor=#cce5ff;strokeColor=#36393d;" vertex="1" parent="WIyWlLk6GJQsqaUBKTNV-1">
          <mxGeometry x="350" y="1520" width="10" height="40" as="geometry" />
        </mxCell>
        <mxCell id="5LpRbifwJaGGcmGT_of5-53" value="" style="rounded=0;whiteSpace=wrap;html=1;sketch=0;fillColor=#cce5ff;strokeColor=#36393d;" vertex="1" parent="WIyWlLk6GJQsqaUBKTNV-1">
          <mxGeometry x="360" y="1520" width="10" height="40" as="geometry" />
        </mxCell>
        <mxCell id="5LpRbifwJaGGcmGT_of5-54" value="" style="rounded=0;whiteSpace=wrap;html=1;sketch=0;fillColor=#cce5ff;strokeColor=#36393d;" vertex="1" parent="WIyWlLk6GJQsqaUBKTNV-1">
          <mxGeometry x="370" y="1520" width="10" height="40" as="geometry" />
        </mxCell>
        <mxCell id="5LpRbifwJaGGcmGT_of5-55" value="" style="rounded=0;whiteSpace=wrap;html=1;sketch=0;fillColor=#cce5ff;strokeColor=#36393d;" vertex="1" parent="WIyWlLk6GJQsqaUBKTNV-1">
          <mxGeometry x="380" y="1520" width="10" height="40" as="geometry" />
        </mxCell>
        <mxCell id="5LpRbifwJaGGcmGT_of5-56" value="" style="rounded=0;whiteSpace=wrap;html=1;sketch=0;fillColor=#cce5ff;strokeColor=#36393d;" vertex="1" parent="WIyWlLk6GJQsqaUBKTNV-1">
          <mxGeometry x="390" y="1520" width="10" height="40" as="geometry" />
        </mxCell>
        <mxCell id="5LpRbifwJaGGcmGT_of5-57" value="" style="rounded=0;whiteSpace=wrap;html=1;sketch=0;fillColor=#cce5ff;strokeColor=#36393d;" vertex="1" parent="WIyWlLk6GJQsqaUBKTNV-1">
          <mxGeometry x="400" y="1520" width="10" height="40" as="geometry" />
        </mxCell>
        <mxCell id="5LpRbifwJaGGcmGT_of5-58" value="" style="rounded=0;whiteSpace=wrap;html=1;sketch=0;fillColor=#cce5ff;strokeColor=#36393d;" vertex="1" parent="WIyWlLk6GJQsqaUBKTNV-1">
          <mxGeometry x="410" y="1520" width="10" height="40" as="geometry" />
        </mxCell>
        <mxCell id="5LpRbifwJaGGcmGT_of5-59" value="" style="rounded=0;whiteSpace=wrap;html=1;sketch=0;fillColor=#cce5ff;strokeColor=#36393d;" vertex="1" parent="WIyWlLk6GJQsqaUBKTNV-1">
          <mxGeometry x="420" y="1520" width="10" height="40" as="geometry" />
        </mxCell>
        <mxCell id="5LpRbifwJaGGcmGT_of5-60" value="" style="rounded=0;whiteSpace=wrap;html=1;sketch=0;fillColor=#cce5ff;strokeColor=#36393d;" vertex="1" parent="WIyWlLk6GJQsqaUBKTNV-1">
          <mxGeometry x="430" y="1520" width="10" height="40" as="geometry" />
        </mxCell>
        <mxCell id="5LpRbifwJaGGcmGT_of5-61" value="" style="rounded=0;whiteSpace=wrap;html=1;sketch=0;fillColor=#cce5ff;strokeColor=#36393d;" vertex="1" parent="WIyWlLk6GJQsqaUBKTNV-1">
          <mxGeometry x="440" y="1520" width="10" height="40" as="geometry" />
        </mxCell>
        <mxCell id="5LpRbifwJaGGcmGT_of5-62" value="" style="rounded=0;whiteSpace=wrap;html=1;sketch=0;" vertex="1" parent="WIyWlLk6GJQsqaUBKTNV-1">
          <mxGeometry x="450" y="1520" width="10" height="40" as="geometry" />
        </mxCell>
        <mxCell id="5LpRbifwJaGGcmGT_of5-63" value="" style="rounded=0;whiteSpace=wrap;html=1;sketch=0;" vertex="1" parent="WIyWlLk6GJQsqaUBKTNV-1">
          <mxGeometry x="460" y="1520" width="10" height="40" as="geometry" />
        </mxCell>
        <mxCell id="5LpRbifwJaGGcmGT_of5-64" value="" style="rounded=0;whiteSpace=wrap;html=1;sketch=0;" vertex="1" parent="WIyWlLk6GJQsqaUBKTNV-1">
          <mxGeometry x="470" y="1520" width="10" height="40" as="geometry" />
        </mxCell>
        <mxCell id="5LpRbifwJaGGcmGT_of5-65" value="" style="rounded=0;whiteSpace=wrap;html=1;sketch=0;" vertex="1" parent="WIyWlLk6GJQsqaUBKTNV-1">
          <mxGeometry x="480" y="1520" width="10" height="40" as="geometry" />
        </mxCell>
        <mxCell id="5LpRbifwJaGGcmGT_of5-66" value="" style="rounded=0;whiteSpace=wrap;html=1;sketch=0;" vertex="1" parent="WIyWlLk6GJQsqaUBKTNV-1">
          <mxGeometry x="490" y="1520" width="10" height="40" as="geometry" />
        </mxCell>
        <mxCell id="5LpRbifwJaGGcmGT_of5-67" value="" style="rounded=0;whiteSpace=wrap;html=1;sketch=0;" vertex="1" parent="WIyWlLk6GJQsqaUBKTNV-1">
          <mxGeometry x="500" y="1520" width="10" height="40" as="geometry" />
        </mxCell>
        <mxCell id="5LpRbifwJaGGcmGT_of5-68" value="" style="rounded=0;whiteSpace=wrap;html=1;sketch=0;" vertex="1" parent="WIyWlLk6GJQsqaUBKTNV-1">
          <mxGeometry x="510" y="1520" width="10" height="40" as="geometry" />
        </mxCell>
        <mxCell id="5LpRbifwJaGGcmGT_of5-69" value="" style="rounded=0;whiteSpace=wrap;html=1;sketch=0;" vertex="1" parent="WIyWlLk6GJQsqaUBKTNV-1">
          <mxGeometry x="520" y="1520" width="10" height="40" as="geometry" />
        </mxCell>
        <mxCell id="5LpRbifwJaGGcmGT_of5-70" value="" style="rounded=0;whiteSpace=wrap;html=1;sketch=0;" vertex="1" parent="WIyWlLk6GJQsqaUBKTNV-1">
          <mxGeometry x="530" y="1520" width="10" height="40" as="geometry" />
        </mxCell>
        <mxCell id="5LpRbifwJaGGcmGT_of5-71" value="" style="rounded=0;whiteSpace=wrap;html=1;sketch=0;" vertex="1" parent="WIyWlLk6GJQsqaUBKTNV-1">
          <mxGeometry x="540" y="1520" width="10" height="40" as="geometry" />
        </mxCell>
        <mxCell id="5LpRbifwJaGGcmGT_of5-72" value="" style="rounded=0;whiteSpace=wrap;html=1;sketch=0;" vertex="1" parent="WIyWlLk6GJQsqaUBKTNV-1">
          <mxGeometry x="550" y="1520" width="10" height="40" as="geometry" />
        </mxCell>
        <mxCell id="5LpRbifwJaGGcmGT_of5-73" value="" style="rounded=0;whiteSpace=wrap;html=1;sketch=0;" vertex="1" parent="WIyWlLk6GJQsqaUBKTNV-1">
          <mxGeometry x="560" y="1520" width="10" height="40" as="geometry" />
        </mxCell>
        <mxCell id="5LpRbifwJaGGcmGT_of5-74" value="" style="rounded=0;whiteSpace=wrap;html=1;sketch=0;" vertex="1" parent="WIyWlLk6GJQsqaUBKTNV-1">
          <mxGeometry x="570" y="1520" width="10" height="40" as="geometry" />
        </mxCell>
        <mxCell id="5LpRbifwJaGGcmGT_of5-75" value="" style="rounded=0;whiteSpace=wrap;html=1;sketch=0;" vertex="1" parent="WIyWlLk6GJQsqaUBKTNV-1">
          <mxGeometry x="580" y="1520" width="10" height="40" as="geometry" />
        </mxCell>
        <mxCell id="5LpRbifwJaGGcmGT_of5-76" value="" style="rounded=0;whiteSpace=wrap;html=1;sketch=0;" vertex="1" parent="WIyWlLk6GJQsqaUBKTNV-1">
          <mxGeometry x="590" y="1520" width="10" height="40" as="geometry" />
        </mxCell>
        <mxCell id="5LpRbifwJaGGcmGT_of5-77" value="" style="rounded=0;whiteSpace=wrap;html=1;sketch=0;" vertex="1" parent="WIyWlLk6GJQsqaUBKTNV-1">
          <mxGeometry x="600" y="1520" width="10" height="40" as="geometry" />
        </mxCell>
        <mxCell id="5LpRbifwJaGGcmGT_of5-78" value="" style="rounded=0;whiteSpace=wrap;html=1;sketch=0;" vertex="1" parent="WIyWlLk6GJQsqaUBKTNV-1">
          <mxGeometry x="610" y="1520" width="10" height="40" as="geometry" />
        </mxCell>
        <mxCell id="5LpRbifwJaGGcmGT_of5-79" value="" style="rounded=0;whiteSpace=wrap;html=1;sketch=0;" vertex="1" parent="WIyWlLk6GJQsqaUBKTNV-1">
          <mxGeometry x="620" y="1520" width="10" height="40" as="geometry" />
        </mxCell>
        <mxCell id="5LpRbifwJaGGcmGT_of5-80" value="" style="rounded=0;whiteSpace=wrap;html=1;sketch=0;" vertex="1" parent="WIyWlLk6GJQsqaUBKTNV-1">
          <mxGeometry x="630" y="1520" width="10" height="40" as="geometry" />
        </mxCell>
        <mxCell id="5LpRbifwJaGGcmGT_of5-81" value="" style="rounded=0;whiteSpace=wrap;html=1;sketch=0;" vertex="1" parent="WIyWlLk6GJQsqaUBKTNV-1">
          <mxGeometry x="640" y="1520" width="10" height="40" as="geometry" />
        </mxCell>
        <mxCell id="5LpRbifwJaGGcmGT_of5-82" value="" style="rounded=0;whiteSpace=wrap;html=1;sketch=0;" vertex="1" parent="WIyWlLk6GJQsqaUBKTNV-1">
          <mxGeometry x="650" y="1520" width="10" height="40" as="geometry" />
        </mxCell>
        <mxCell id="5LpRbifwJaGGcmGT_of5-83" value="" style="rounded=0;whiteSpace=wrap;html=1;sketch=0;" vertex="1" parent="WIyWlLk6GJQsqaUBKTNV-1">
          <mxGeometry x="660" y="1520" width="10" height="40" as="geometry" />
        </mxCell>
        <mxCell id="5LpRbifwJaGGcmGT_of5-84" value="" style="rounded=0;whiteSpace=wrap;html=1;sketch=0;" vertex="1" parent="WIyWlLk6GJQsqaUBKTNV-1">
          <mxGeometry x="670" y="1520" width="10" height="40" as="geometry" />
        </mxCell>
        <mxCell id="5LpRbifwJaGGcmGT_of5-85" value="Receiver" style="rounded=0;whiteSpace=wrap;html=1;sketch=0;strokeColor=#6c8ebf;fillColor=#dae8fc;" vertex="1" parent="WIyWlLk6GJQsqaUBKTNV-1">
          <mxGeometry x="280" y="1440" width="80" height="30" as="geometry" />
        </mxCell>
        <mxCell id="5LpRbifwJaGGcmGT_of5-86" value="Loader" style="rounded=0;whiteSpace=wrap;html=1;sketch=0;strokeColor=#6c8ebf;fillColor=#dae8fc;" vertex="1" parent="WIyWlLk6GJQsqaUBKTNV-1">
          <mxGeometry x="520" y="1440" width="80" height="40" as="geometry" />
        </mxCell>
        <mxCell id="5LpRbifwJaGGcmGT_of5-87" value="Dispatcher" style="rounded=0;whiteSpace=wrap;html=1;sketch=0;strokeColor=#6c8ebf;fillColor=#dae8fc;" vertex="1" parent="WIyWlLk6GJQsqaUBKTNV-1">
          <mxGeometry x="280" y="1600" width="80" height="40" as="geometry" />
        </mxCell>
        <mxCell id="5LpRbifwJaGGcmGT_of5-88" value="Moniner" style="rounded=0;whiteSpace=wrap;html=1;sketch=0;strokeColor=#6c8ebf;fillColor=#dae8fc;" vertex="1" parent="WIyWlLk6GJQsqaUBKTNV-1">
          <mxGeometry x="520" y="1600" width="80" height="40" as="geometry" />
        </mxCell>
        <mxCell id="5LpRbifwJaGGcmGT_of5-89" value="" style="rounded=0;whiteSpace=wrap;html=1;sketch=0;fillColor=#ffcc99;strokeColor=#36393d;" vertex="1" parent="WIyWlLk6GJQsqaUBKTNV-1">
          <mxGeometry x="205" y="1680" width="10" height="40" as="geometry" />
        </mxCell>
        <mxCell id="5LpRbifwJaGGcmGT_of5-90" value="" style="rounded=0;whiteSpace=wrap;html=1;sketch=0;fillColor=#ffcc99;strokeColor=#36393d;" vertex="1" parent="WIyWlLk6GJQsqaUBKTNV-1">
          <mxGeometry x="215" y="1680" width="10" height="40" as="geometry" />
        </mxCell>
        <mxCell id="5LpRbifwJaGGcmGT_of5-91" value="" style="rounded=0;whiteSpace=wrap;html=1;sketch=0;fillColor=#ffcc99;strokeColor=#36393d;" vertex="1" parent="WIyWlLk6GJQsqaUBKTNV-1">
          <mxGeometry x="225" y="1680" width="10" height="40" as="geometry" />
        </mxCell>
        <mxCell id="5LpRbifwJaGGcmGT_of5-92" value="" style="rounded=0;whiteSpace=wrap;html=1;sketch=0;fillColor=#ffcc99;strokeColor=#36393d;" vertex="1" parent="WIyWlLk6GJQsqaUBKTNV-1">
          <mxGeometry x="235" y="1680" width="10" height="40" as="geometry" />
        </mxCell>
        <mxCell id="5LpRbifwJaGGcmGT_of5-93" value="" style="rounded=0;whiteSpace=wrap;html=1;sketch=0;fillColor=#ffcc99;strokeColor=#36393d;" vertex="1" parent="WIyWlLk6GJQsqaUBKTNV-1">
          <mxGeometry x="245" y="1680" width="10" height="40" as="geometry" />
        </mxCell>
        <mxCell id="5LpRbifwJaGGcmGT_of5-95" value="" style="rounded=0;whiteSpace=wrap;html=1;sketch=0;fillColor=#ffcc99;strokeColor=#36393d;" vertex="1" parent="WIyWlLk6GJQsqaUBKTNV-1">
          <mxGeometry x="265" y="1680" width="10" height="40" as="geometry" />
        </mxCell>
        <mxCell id="5LpRbifwJaGGcmGT_of5-96" value="" style="rounded=0;whiteSpace=wrap;html=1;sketch=0;fillColor=#ffcc99;strokeColor=#36393d;" vertex="1" parent="WIyWlLk6GJQsqaUBKTNV-1">
          <mxGeometry x="275" y="1680" width="10" height="40" as="geometry" />
        </mxCell>
        <mxCell id="5LpRbifwJaGGcmGT_of5-97" value="" style="rounded=0;whiteSpace=wrap;html=1;sketch=0;fillColor=#ffcc99;strokeColor=#36393d;" vertex="1" parent="WIyWlLk6GJQsqaUBKTNV-1">
          <mxGeometry x="285" y="1680" width="10" height="40" as="geometry" />
        </mxCell>
        <mxCell id="5LpRbifwJaGGcmGT_of5-98" value="" style="rounded=0;whiteSpace=wrap;html=1;sketch=0;fillColor=#ffcc99;strokeColor=#36393d;" vertex="1" parent="WIyWlLk6GJQsqaUBKTNV-1">
          <mxGeometry x="295" y="1680" width="10" height="40" as="geometry" />
        </mxCell>
        <mxCell id="5LpRbifwJaGGcmGT_of5-99" value="" style="rounded=0;whiteSpace=wrap;html=1;sketch=0;fillColor=#ffcc99;strokeColor=#36393d;" vertex="1" parent="WIyWlLk6GJQsqaUBKTNV-1">
          <mxGeometry x="305" y="1680" width="10" height="40" as="geometry" />
        </mxCell>
        <mxCell id="5LpRbifwJaGGcmGT_of5-101" value="" style="rounded=0;whiteSpace=wrap;html=1;sketch=0;fillColor=#ffcc99;strokeColor=#36393d;" vertex="1" parent="WIyWlLk6GJQsqaUBKTNV-1">
          <mxGeometry x="325" y="1680" width="10" height="40" as="geometry" />
        </mxCell>
        <mxCell id="5LpRbifwJaGGcmGT_of5-102" value="" style="rounded=0;whiteSpace=wrap;html=1;sketch=0;fillColor=#ffcc99;strokeColor=#36393d;" vertex="1" parent="WIyWlLk6GJQsqaUBKTNV-1">
          <mxGeometry x="335" y="1680" width="10" height="40" as="geometry" />
        </mxCell>
        <mxCell id="5LpRbifwJaGGcmGT_of5-103" value="" style="rounded=0;whiteSpace=wrap;html=1;sketch=0;fillColor=#ffcc99;strokeColor=#36393d;" vertex="1" parent="WIyWlLk6GJQsqaUBKTNV-1">
          <mxGeometry x="345" y="1680" width="10" height="40" as="geometry" />
        </mxCell>
        <mxCell id="5LpRbifwJaGGcmGT_of5-104" value="" style="rounded=0;whiteSpace=wrap;html=1;sketch=0;fillColor=#ffcc99;strokeColor=#36393d;" vertex="1" parent="WIyWlLk6GJQsqaUBKTNV-1">
          <mxGeometry x="355" y="1680" width="10" height="40" as="geometry" />
        </mxCell>
        <mxCell id="5LpRbifwJaGGcmGT_of5-105" value="" style="rounded=0;whiteSpace=wrap;html=1;sketch=0;fillColor=#ffcc99;strokeColor=#36393d;" vertex="1" parent="WIyWlLk6GJQsqaUBKTNV-1">
          <mxGeometry x="365" y="1680" width="10" height="40" as="geometry" />
        </mxCell>
        <mxCell id="5LpRbifwJaGGcmGT_of5-107" value="" style="rounded=0;whiteSpace=wrap;html=1;sketch=0;fillColor=#ffcc99;strokeColor=#36393d;" vertex="1" parent="WIyWlLk6GJQsqaUBKTNV-1">
          <mxGeometry x="385" y="1680" width="10" height="40" as="geometry" />
        </mxCell>
        <mxCell id="5LpRbifwJaGGcmGT_of5-108" value="" style="rounded=0;whiteSpace=wrap;html=1;sketch=0;fillColor=#ffcc99;strokeColor=#36393d;" vertex="1" parent="WIyWlLk6GJQsqaUBKTNV-1">
          <mxGeometry x="395" y="1680" width="10" height="40" as="geometry" />
        </mxCell>
        <mxCell id="5LpRbifwJaGGcmGT_of5-109" value="" style="rounded=0;whiteSpace=wrap;html=1;sketch=0;fillColor=#ffcc99;strokeColor=#36393d;" vertex="1" parent="WIyWlLk6GJQsqaUBKTNV-1">
          <mxGeometry x="405" y="1680" width="10" height="40" as="geometry" />
        </mxCell>
        <mxCell id="5LpRbifwJaGGcmGT_of5-110" value="" style="rounded=0;whiteSpace=wrap;html=1;sketch=0;fillColor=#ffcc99;strokeColor=#36393d;" vertex="1" parent="WIyWlLk6GJQsqaUBKTNV-1">
          <mxGeometry x="415" y="1680" width="10" height="40" as="geometry" />
        </mxCell>
        <mxCell id="5LpRbifwJaGGcmGT_of5-111" value="" style="rounded=0;whiteSpace=wrap;html=1;sketch=0;fillColor=#ffcc99;strokeColor=#36393d;" vertex="1" parent="WIyWlLk6GJQsqaUBKTNV-1">
          <mxGeometry x="425" y="1680" width="10" height="40" as="geometry" />
        </mxCell>
        <mxCell id="5LpRbifwJaGGcmGT_of5-113" value="" style="rounded=0;whiteSpace=wrap;html=1;sketch=0;fillColor=#ffcc99;strokeColor=#36393d;" vertex="1" parent="WIyWlLk6GJQsqaUBKTNV-1">
          <mxGeometry x="445" y="1680" width="10" height="40" as="geometry" />
        </mxCell>
        <mxCell id="5LpRbifwJaGGcmGT_of5-114" value="" style="rounded=0;whiteSpace=wrap;html=1;sketch=0;fillColor=#ffcc99;strokeColor=#36393d;" vertex="1" parent="WIyWlLk6GJQsqaUBKTNV-1">
          <mxGeometry x="455" y="1680" width="10" height="40" as="geometry" />
        </mxCell>
        <mxCell id="5LpRbifwJaGGcmGT_of5-115" value="" style="rounded=0;whiteSpace=wrap;html=1;sketch=0;fillColor=#ffcc99;strokeColor=#36393d;" vertex="1" parent="WIyWlLk6GJQsqaUBKTNV-1">
          <mxGeometry x="465" y="1680" width="10" height="40" as="geometry" />
        </mxCell>
        <mxCell id="5LpRbifwJaGGcmGT_of5-116" value="" style="rounded=0;whiteSpace=wrap;html=1;sketch=0;fillColor=#ffcc99;strokeColor=#36393d;" vertex="1" parent="WIyWlLk6GJQsqaUBKTNV-1">
          <mxGeometry x="475" y="1680" width="10" height="40" as="geometry" />
        </mxCell>
        <mxCell id="5LpRbifwJaGGcmGT_of5-117" value="" style="rounded=0;whiteSpace=wrap;html=1;sketch=0;fillColor=#ffcc99;strokeColor=#36393d;" vertex="1" parent="WIyWlLk6GJQsqaUBKTNV-1">
          <mxGeometry x="485" y="1680" width="10" height="40" as="geometry" />
        </mxCell>
        <mxCell id="5LpRbifwJaGGcmGT_of5-118" value="" style="rounded=0;whiteSpace=wrap;html=1;sketch=0;fillColor=#ffcc99;strokeColor=#36393d;" vertex="1" parent="WIyWlLk6GJQsqaUBKTNV-1">
          <mxGeometry x="495" y="1680" width="10" height="40" as="geometry" />
        </mxCell>
        <mxCell id="5LpRbifwJaGGcmGT_of5-119" value="" style="rounded=0;whiteSpace=wrap;html=1;sketch=0;fillColor=#ffcc99;strokeColor=#36393d;" vertex="1" parent="WIyWlLk6GJQsqaUBKTNV-1">
          <mxGeometry x="505" y="1680" width="10" height="40" as="geometry" />
        </mxCell>
        <mxCell id="5LpRbifwJaGGcmGT_of5-120" value="" style="rounded=0;whiteSpace=wrap;html=1;sketch=0;fillColor=#ffcc99;strokeColor=#36393d;" vertex="1" parent="WIyWlLk6GJQsqaUBKTNV-1">
          <mxGeometry x="515" y="1680" width="10" height="40" as="geometry" />
        </mxCell>
        <mxCell id="5LpRbifwJaGGcmGT_of5-121" value="" style="rounded=0;whiteSpace=wrap;html=1;sketch=0;fillColor=#ffcc99;strokeColor=#36393d;" vertex="1" parent="WIyWlLk6GJQsqaUBKTNV-1">
          <mxGeometry x="525" y="1680" width="10" height="40" as="geometry" />
        </mxCell>
        <mxCell id="5LpRbifwJaGGcmGT_of5-122" value="" style="rounded=0;whiteSpace=wrap;html=1;sketch=0;fillColor=#ffcc99;strokeColor=#36393d;" vertex="1" parent="WIyWlLk6GJQsqaUBKTNV-1">
          <mxGeometry x="535" y="1680" width="10" height="40" as="geometry" />
        </mxCell>
        <mxCell id="5LpRbifwJaGGcmGT_of5-124" value="" style="rounded=0;whiteSpace=wrap;html=1;sketch=0;fillColor=#ffcc99;strokeColor=#36393d;" vertex="1" parent="WIyWlLk6GJQsqaUBKTNV-1">
          <mxGeometry x="555" y="1680" width="10" height="40" as="geometry" />
        </mxCell>
        <mxCell id="5LpRbifwJaGGcmGT_of5-125" value="" style="rounded=0;whiteSpace=wrap;html=1;sketch=0;fillColor=#ffcc99;strokeColor=#36393d;" vertex="1" parent="WIyWlLk6GJQsqaUBKTNV-1">
          <mxGeometry x="565" y="1680" width="10" height="40" as="geometry" />
        </mxCell>
        <mxCell id="5LpRbifwJaGGcmGT_of5-126" value="" style="rounded=0;whiteSpace=wrap;html=1;sketch=0;fillColor=#ffcc99;strokeColor=#36393d;" vertex="1" parent="WIyWlLk6GJQsqaUBKTNV-1">
          <mxGeometry x="575" y="1680" width="10" height="40" as="geometry" />
        </mxCell>
        <mxCell id="5LpRbifwJaGGcmGT_of5-127" value="" style="rounded=0;whiteSpace=wrap;html=1;sketch=0;fillColor=#ffcc99;strokeColor=#36393d;" vertex="1" parent="WIyWlLk6GJQsqaUBKTNV-1">
          <mxGeometry x="585" y="1680" width="10" height="40" as="geometry" />
        </mxCell>
        <mxCell id="5LpRbifwJaGGcmGT_of5-128" value="" style="rounded=0;whiteSpace=wrap;html=1;sketch=0;fillColor=#ffcc99;strokeColor=#36393d;" vertex="1" parent="WIyWlLk6GJQsqaUBKTNV-1">
          <mxGeometry x="595" y="1680" width="10" height="40" as="geometry" />
        </mxCell>
        <mxCell id="5LpRbifwJaGGcmGT_of5-129" value="" style="rounded=0;whiteSpace=wrap;html=1;sketch=0;fillColor=#ffcc99;strokeColor=#36393d;" vertex="1" parent="WIyWlLk6GJQsqaUBKTNV-1">
          <mxGeometry x="605" y="1680" width="10" height="40" as="geometry" />
        </mxCell>
        <mxCell id="5LpRbifwJaGGcmGT_of5-130" value="" style="rounded=0;whiteSpace=wrap;html=1;sketch=0;fillColor=#ffcc99;strokeColor=#36393d;" vertex="1" parent="WIyWlLk6GJQsqaUBKTNV-1">
          <mxGeometry x="615" y="1680" width="10" height="40" as="geometry" />
        </mxCell>
        <mxCell id="5LpRbifwJaGGcmGT_of5-131" value="" style="rounded=0;whiteSpace=wrap;html=1;sketch=0;fillColor=#ffcc99;strokeColor=#36393d;" vertex="1" parent="WIyWlLk6GJQsqaUBKTNV-1">
          <mxGeometry x="625" y="1680" width="10" height="40" as="geometry" />
        </mxCell>
        <mxCell id="5LpRbifwJaGGcmGT_of5-132" value="" style="rounded=0;whiteSpace=wrap;html=1;sketch=0;fillColor=#ffcc99;strokeColor=#36393d;" vertex="1" parent="WIyWlLk6GJQsqaUBKTNV-1">
          <mxGeometry x="635" y="1680" width="10" height="40" as="geometry" />
        </mxCell>
        <mxCell id="5LpRbifwJaGGcmGT_of5-133" value="" style="rounded=0;whiteSpace=wrap;html=1;sketch=0;fillColor=#ffcc99;strokeColor=#36393d;" vertex="1" parent="WIyWlLk6GJQsqaUBKTNV-1">
          <mxGeometry x="645" y="1680" width="10" height="40" as="geometry" />
        </mxCell>
        <mxCell id="5LpRbifwJaGGcmGT_of5-134" value="" style="rounded=0;whiteSpace=wrap;html=1;sketch=0;fillColor=#ffcc99;strokeColor=#36393d;" vertex="1" parent="WIyWlLk6GJQsqaUBKTNV-1">
          <mxGeometry x="655" y="1680" width="10" height="40" as="geometry" />
        </mxCell>
        <mxCell id="5LpRbifwJaGGcmGT_of5-135" value="" style="rounded=0;whiteSpace=wrap;html=1;sketch=0;fillColor=#ffcc99;strokeColor=#36393d;" vertex="1" parent="WIyWlLk6GJQsqaUBKTNV-1">
          <mxGeometry x="665" y="1680" width="10" height="40" as="geometry" />
        </mxCell>
        <mxCell id="5LpRbifwJaGGcmGT_of5-136" value="" style="rounded=0;whiteSpace=wrap;html=1;sketch=0;fillColor=#ffcc99;strokeColor=#36393d;" vertex="1" parent="WIyWlLk6GJQsqaUBKTNV-1">
          <mxGeometry x="675" y="1680" width="10" height="40" as="geometry" />
        </mxCell>
        <mxCell id="5LpRbifwJaGGcmGT_of5-137" value="Task queue" style="text;html=1;strokeColor=none;fillColor=none;align=center;verticalAlign=middle;whiteSpace=wrap;rounded=0;sketch=0;fontColor=#000000;" vertex="1" parent="WIyWlLk6GJQsqaUBKTNV-1">
          <mxGeometry x="720" y="1525" width="80" height="30" as="geometry" />
        </mxCell>
        <mxCell id="5LpRbifwJaGGcmGT_of5-138" value="Robot Group" style="text;html=1;strokeColor=none;fillColor=none;align=center;verticalAlign=middle;whiteSpace=wrap;rounded=0;sketch=0;fontColor=#000000;" vertex="1" parent="WIyWlLk6GJQsqaUBKTNV-1">
          <mxGeometry x="720" y="1680" width="80" height="30" as="geometry" />
        </mxCell>
        <mxCell id="5LpRbifwJaGGcmGT_of5-139" style="edgeStyle=orthogonalEdgeStyle;rounded=0;orthogonalLoop=1;jettySize=auto;html=1;labelBackgroundColor=#F4F1DE;strokeColor=#E07A5F;fontColor=#393C56;exitX=0.5;exitY=0;exitDx=0;exitDy=0;" edge="1" parent="WIyWlLk6GJQsqaUBKTNV-1" source="5LpRbifwJaGGcmGT_of5-85" target="5LpRbifwJaGGcmGT_of5-31">
          <mxGeometry relative="1" as="geometry">
            <mxPoint x="410" y="1470" as="targetPoint" />
            <mxPoint x="365.44000000000005" y="1369.8" as="sourcePoint" />
          </mxGeometry>
        </mxCell>
        <mxCell id="5LpRbifwJaGGcmGT_of5-140" style="edgeStyle=orthogonalEdgeStyle;rounded=0;orthogonalLoop=1;jettySize=auto;html=1;labelBackgroundColor=#F4F1DE;strokeColor=#E07A5F;fontColor=#393C56;exitX=0.5;exitY=0;exitDx=0;exitDy=0;entryX=0.75;entryY=1;entryDx=0;entryDy=0;" edge="1" parent="WIyWlLk6GJQsqaUBKTNV-1" source="5LpRbifwJaGGcmGT_of5-86" target="5LpRbifwJaGGcmGT_of5-31">
          <mxGeometry relative="1" as="geometry">
            <mxPoint x="455" y="1370" as="targetPoint" />
            <mxPoint x="355" y="1450" as="sourcePoint" />
          </mxGeometry>
        </mxCell>
        <mxCell id="5LpRbifwJaGGcmGT_of5-141" style="edgeStyle=orthogonalEdgeStyle;rounded=0;orthogonalLoop=1;jettySize=auto;html=1;entryX=0;entryY=0;entryDx=0;entryDy=0;labelBackgroundColor=#F4F1DE;strokeColor=#E07A5F;fontColor=#393C56;exitX=1;exitY=0.5;exitDx=0;exitDy=0;" edge="1" parent="WIyWlLk6GJQsqaUBKTNV-1" source="5LpRbifwJaGGcmGT_of5-85" target="5LpRbifwJaGGcmGT_of5-62">
          <mxGeometry relative="1" as="geometry">
            <mxPoint x="452.28" y="1525" as="targetPoint" />
            <mxPoint x="407.72" y="1424.8" as="sourcePoint" />
          </mxGeometry>
        </mxCell>
        <mxCell id="5LpRbifwJaGGcmGT_of5-142" style="edgeStyle=orthogonalEdgeStyle;rounded=0;orthogonalLoop=1;jettySize=auto;html=1;entryX=0;entryY=0;entryDx=0;entryDy=0;labelBackgroundColor=#F4F1DE;strokeColor=#E07A5F;fontColor=#393C56;" edge="1" parent="WIyWlLk6GJQsqaUBKTNV-1" source="5LpRbifwJaGGcmGT_of5-86" target="5LpRbifwJaGGcmGT_of5-63">
          <mxGeometry relative="1" as="geometry">
            <mxPoint x="745" y="1520" as="targetPoint" />
            <mxPoint x="655" y="1460" as="sourcePoint" />
          </mxGeometry>
        </mxCell>
        <mxCell id="5LpRbifwJaGGcmGT_of5-143" style="edgeStyle=orthogonalEdgeStyle;rounded=0;orthogonalLoop=1;jettySize=auto;html=1;entryX=0.25;entryY=1;entryDx=0;entryDy=0;labelBackgroundColor=#F4F1DE;strokeColor=#E07A5F;fontColor=#393C56;exitX=0;exitY=0.25;exitDx=0;exitDy=0;exitPerimeter=0;" edge="1" parent="WIyWlLk6GJQsqaUBKTNV-1" source="5LpRbifwJaGGcmGT_of5-87" target="5LpRbifwJaGGcmGT_of5-37">
          <mxGeometry relative="1" as="geometry">
            <mxPoint x="114.56" y="1655.2" as="targetPoint" />
            <mxPoint x="220" y="1580" as="sourcePoint" />
          </mxGeometry>
        </mxCell>
        <mxCell id="5LpRbifwJaGGcmGT_of5-144" style="edgeStyle=orthogonalEdgeStyle;rounded=0;orthogonalLoop=1;jettySize=auto;html=1;labelBackgroundColor=#F4F1DE;strokeColor=#E07A5F;fontColor=#393C56;exitX=1;exitY=0.5;exitDx=0;exitDy=0;" edge="1" parent="WIyWlLk6GJQsqaUBKTNV-1" source="5LpRbifwJaGGcmGT_of5-87" target="5LpRbifwJaGGcmGT_of5-146">
          <mxGeometry relative="1" as="geometry">
            <mxPoint x="200" y="1660" as="targetPoint" />
            <mxPoint x="260" y="1640" as="sourcePoint" />
          </mxGeometry>
        </mxCell>
        <mxCell id="5LpRbifwJaGGcmGT_of5-146" value="" style="rounded=0;whiteSpace=wrap;html=1;sketch=0;fontColor=#000000;strokeColor=#E07A5F;fillColor=none;dashed=1;" vertex="1" parent="WIyWlLk6GJQsqaUBKTNV-1">
          <mxGeometry x="180" y="1670" width="520" height="60" as="geometry" />
        </mxCell>
        <mxCell id="5LpRbifwJaGGcmGT_of5-153" value="" style="rounded=0;whiteSpace=wrap;html=1;sketch=0;fillColor=#ffcc99;strokeColor=#36393d;" vertex="1" parent="WIyWlLk6GJQsqaUBKTNV-1">
          <mxGeometry x="70" y="1607" width="50" height="10" as="geometry" />
        </mxCell>
        <mxCell id="5LpRbifwJaGGcmGT_of5-158" value="" style="rounded=0;whiteSpace=wrap;html=1;sketch=0;fillColor=#ffcc99;strokeColor=#36393d;" vertex="1" parent="WIyWlLk6GJQsqaUBKTNV-1">
          <mxGeometry x="70" y="1617" width="50" height="10" as="geometry" />
        </mxCell>
        <mxCell id="5LpRbifwJaGGcmGT_of5-159" value="" style="rounded=0;whiteSpace=wrap;html=1;sketch=0;fillColor=#ffcc99;strokeColor=#36393d;" vertex="1" parent="WIyWlLk6GJQsqaUBKTNV-1">
          <mxGeometry x="70" y="1627" width="50" height="10" as="geometry" />
        </mxCell>
        <mxCell id="5LpRbifwJaGGcmGT_of5-160" value="" style="rounded=0;whiteSpace=wrap;html=1;sketch=0;fillColor=#ffcc99;strokeColor=#36393d;" vertex="1" parent="WIyWlLk6GJQsqaUBKTNV-1">
          <mxGeometry x="70" y="1637" width="50" height="10" as="geometry" />
        </mxCell>
        <mxCell id="5LpRbifwJaGGcmGT_of5-162" style="edgeStyle=orthogonalEdgeStyle;rounded=0;orthogonalLoop=1;jettySize=auto;html=1;entryX=0;entryY=0.75;entryDx=0;entryDy=0;labelBackgroundColor=#F4F1DE;strokeColor=#E07A5F;fontColor=#393C56;exitX=1;exitY=0.25;exitDx=0;exitDy=0;" edge="1" parent="WIyWlLk6GJQsqaUBKTNV-1" source="5LpRbifwJaGGcmGT_of5-159" target="5LpRbifwJaGGcmGT_of5-87">
          <mxGeometry relative="1" as="geometry">
            <mxPoint x="70" y="1660" as="targetPoint" />
            <mxPoint x="147.5" y="1720" as="sourcePoint" />
          </mxGeometry>
        </mxCell>
        <mxCell id="5LpRbifwJaGGcmGT_of5-163" value="&lt;font color=&quot;#000000&quot;&gt;支持延时/定时任务&lt;/font&gt;" style="rounded=0;whiteSpace=wrap;html=1;sketch=0;strokeColor=#36393d;fillColor=#ffff88;fontColor=#FF0000;" vertex="1" parent="WIyWlLk6GJQsqaUBKTNV-1">
          <mxGeometry x="610" y="1440" width="110" height="30" as="geometry" />
        </mxCell>
        <mxCell id="5LpRbifwJaGGcmGT_of5-164" value="&lt;font color=&quot;#000000&quot;&gt;任务队列未满时写入队列&lt;/font&gt;" style="rounded=0;whiteSpace=wrap;html=1;sketch=0;strokeColor=#36393d;fillColor=#ffff88;fontColor=#FF0000;" vertex="1" parent="WIyWlLk6GJQsqaUBKTNV-1">
          <mxGeometry x="255" y="1470" width="170" height="30" as="geometry" />
        </mxCell>
      </root>
    </mxGraphModel>
  </diagram>
</mxfile>
